<?xml version="1.0" encoding="UTF-8" standalone="no"?>
<!-- Created with Inkscape (http://www.inkscape.org/) -->

<svg
   xmlns:dc="http://purl.org/dc/elements/1.1/"
   xmlns:cc="http://creativecommons.org/ns#"
   xmlns:rdf="http://www.w3.org/1999/02/22-rdf-syntax-ns#"
   xmlns:svg="http://www.w3.org/2000/svg"
   xmlns="http://www.w3.org/2000/svg"
   xmlns:sodipodi="http://sodipodi.sourceforge.net/DTD/sodipodi-0.dtd"
   xmlns:inkscape="http://www.inkscape.org/namespaces/inkscape"
   width="121"
   height="168"
   viewBox="0 0 32.014583 44.45"
   version="1.1"
   id="svg983"
   inkscape:version="0.92.3 (2405546, 2018-03-11)"
   sodipodi:docname="tablet_z_logo_1.svg">
  <defs
     id="defs977" />
  <sodipodi:namedview
     id="base"
     pagecolor="#ffffff"
     bordercolor="#666666"
     borderopacity="1.0"
     inkscape:pageopacity="0.0"
     inkscape:pageshadow="2"
     inkscape:zoom="4"
     inkscape:cx="68.963078"
     inkscape:cy="90.907402"
     inkscape:document-units="px"
     inkscape:current-layer="layer2"
     showgrid="false"
     units="px"
     inkscape:showpageshadow="false"
     borderlayer="true"
     inkscape:window-width="1920"
     inkscape:window-height="1017"
     inkscape:window-x="-8"
     inkscape:window-y="-8"
     inkscape:window-maximized="1"
     gridtolerance="1"
     objecttolerance="1"
     guidetolerance="1" />
  <metadata
     id="metadata980">
    <rdf:RDF>
      <cc:Work
         rdf:about="">
        <dc:format>image/svg+xml</dc:format>
        <dc:type
           rdf:resource="http://purl.org/dc/dcmitype/StillImage" />
        <dc:title></dc:title>
      </cc:Work>
    </rdf:RDF>
  </metadata>
  <g
     inkscape:groupmode="layer"
     id="layer2"
     inkscape:label="BG"
     style="display:none"
     sodipodi:insensitive="true">
    <rect
       style="opacity:1;vector-effect:none;fill:#cc0000;fill-opacity:1;stroke:none;stroke-width:0.4264895;stroke-linecap:butt;stroke-linejoin:miter;stroke-miterlimit:4;stroke-dasharray:none;stroke-dashoffset:0;stroke-opacity:1"
       id="rect1551"
       width="32.014584"
       height="44.450001"
       x="-2.104899e-007"
       y="-4.9717221e-007" />
  </g>
  <g
     inkscape:label="Layer 1"
     inkscape:groupmode="layer"
     id="layer1"
     transform="translate(0,-252.54998)"
     style="display:none"
     sodipodi:insensitive="true">
    <rect
       transform="rotate(90)"
       style="display:inline;opacity:1;vector-effect:none;fill:none;fill-opacity:1;stroke:#ffffff;stroke-width:2.13441753;stroke-linecap:butt;stroke-linejoin:miter;stroke-miterlimit:4;stroke-dasharray:none;stroke-dashoffset:0;stroke-opacity:1"
       id="rect6455"
       width="42.074192"
       height="29.288334"
       x="253.73788"
       y="-30.651459"
       ry="5.6323719" />
    <text
       id="text6459"
       y="284.86499"
       x="5.9277105"
       style="font-style:normal;font-variant:normal;font-weight:100;font-stretch:normal;font-size:42.6836853px;line-height:125%;font-family:HelvLight;-inkscape-font-specification:'HelvLight Thin';letter-spacing:0px;word-spacing:0px;fill:#ffffff;fill-opacity:1;stroke:none;stroke-width:1.06709206px;stroke-linecap:butt;stroke-linejoin:miter;stroke-opacity:1"
       xml:space="preserve"><tspan
         id="tspan6457"
         style="font-style:normal;font-variant:normal;font-weight:normal;font-stretch:normal;font-family:'Segoe Print';-inkscape-font-specification:'Segoe Print';fill:#ffffff;stroke-width:1.06709206px"
         y="284.86499"
         x="5.9277105"
         sodipodi:role="line">z</tspan></text>
    <rect
       rx="2.4460311"
       transform="rotate(90)"
       style="opacity:1;vector-effect:none;fill:none;fill-opacity:1;stroke:#ffffff;stroke-width:2.66772199;stroke-linecap:butt;stroke-linejoin:miter;stroke-miterlimit:4;stroke-dasharray:none;stroke-dashoffset:0;stroke-opacity:1"
       id="rect6461"
       width="41.366776"
       height="29.288334"
       x="254.09158"
       y="-30.651459"
       ry="14.644167" />
    <circle
       style="opacity:1;vector-effect:none;fill:#cc0000;fill-opacity:1;stroke:none;stroke-width:1.19248819;stroke-linecap:butt;stroke-linejoin:miter;stroke-miterlimit:4;stroke-dasharray:none;stroke-dashoffset:0;stroke-opacity:1"
       id="circle6463"
       cx="16.007324"
       cy="254.12869"
       r="0.42354295" />
    <rect
       ry="0.27870291"
       y="-296.15121"
       x="-17.648453"
       height="1.4492552"
       width="3.2822425"
       id="rect6465"
       style="opacity:1;vector-effect:none;fill:none;fill-opacity:1;stroke:#cc0000;stroke-width:0.39687499;stroke-linecap:butt;stroke-linejoin:miter;stroke-miterlimit:4;stroke-dasharray:none;stroke-dashoffset:0;stroke-opacity:1"
       transform="scale(-1)" />
  </g>
  <g
     inkscape:groupmode="layer"
     id="layer3"
     inkscape:label="Layer 2"
     style="display:inline;opacity:1"
     sodipodi:insensitive="true">
    <g
       id="g1003"
       style="fill:#ffffff">
      <path
         id="rect867"
         transform="scale(0.26458333)"
         d="M 23.957031,0.45898438 C 16.984997,0.88229906 2.4858169,7.9281012 0.11132812,14.689453 V 153.74805 C 3.4990418,162.3969 17.914429,167.43453 26.707031,167.54492 h 68.210938 c 7.067521,-0.0202 24.120381,-6.2147 25.970701,-13.79687 V 14.689453 C 118.6591,8.2388713 102.04487,0.70586988 94.851562,0.45898438 Z M 60.5,4.3652344 c 0.884695,-4.255e-4 1.601988,0.7168678 1.601562,1.6015625 C 62.101988,6.8514916 61.384695,7.5687849 60.5,7.5683594 59.615305,7.5687849 58.898012,6.8514916 58.898438,5.9667969 58.898012,5.0821022 59.615305,4.3648089 60.5,4.3652344 Z m -0.0039,6.4824216 c 24.258721,0.198874 39.85235,2.195501 48.15821,4.931641 1.33815,1.952459 1.8804,3.405363 2.15429,4.142578 L 110.793,148.10156 c -0.35575,1.18813 -1.54148,3.37621 -2.1543,4.11914 -6.7627,2.47647 -26.128225,4.98097 -48.138674,4.89258 -21.966082,-0.0882 -40.280618,-2.17 -48.15625,-4.90039 -0.822092,-1.19996 -1.56595,-2.4874 -2.140625,-4.14258 l -0.0078,-128.160154 c 0.724893,-1.85017 1.094364,-2.55004 2.154297,-4.125 10.919766,-3.587549 29.783546,-4.810293 48.146485,-4.9375 z M 55.341797,158.53516 h 10.316406 c 0.994256,0 1.794922,0.80066 1.794922,1.79492 v 3.38867 c 0,0.99426 -0.800666,1.79492 -1.794922,1.79492 H 55.341797 c -0.994256,0 -1.794922,-0.80066 -1.794922,-1.79492 v -3.38867 c 0,-0.99426 0.800666,-1.79492 1.794922,-1.79492 z"
         style="display:inline;opacity:1;vector-effect:none;fill:#ffffff;fill-opacity:1;stroke:none;stroke-width:8.56510162;stroke-linecap:butt;stroke-linejoin:miter;stroke-miterlimit:4;stroke-dasharray:none;stroke-dashoffset:0;stroke-opacity:1"
         inkscape:connector-curvature="0" />
      <rect
         ry="0.21879005"
         y="-43.447071"
         x="-17.490747"
         height="1.1377083"
         width="2.9669127"
         id="rect983"
         style="display:inline;opacity:1;vector-effect:none;fill:#ffffff;fill-opacity:1;stroke:none;stroke-width:0.33432114;stroke-linecap:butt;stroke-linejoin:miter;stroke-miterlimit:4;stroke-dasharray:none;stroke-dashoffset:0;stroke-opacity:1"
         transform="scale(-1)" />
    </g>
  </g>
  <g
     inkscape:groupmode="layer"
     id="layer4"
     inkscape:label="Layer 3"
     sodipodi:insensitive="true"
     style="display:inline">
    <g
       aria-label="z"
       style="font-style:normal;font-variant:normal;font-weight:100;font-stretch:normal;font-size:42.68368912px;line-height:125%;font-family:HelvLight;-inkscape-font-specification:'HelvLight Thin';letter-spacing:0px;word-spacing:0px;display:inline;fill:#ffffff;fill-opacity:1;stroke:none;stroke-width:1.06709206px;stroke-linecap:butt;stroke-linejoin:miter;stroke-opacity:1"
       id="text6459-9">
      <path
         d="m 26.394206,32.085752 q -0.541882,-0.229258 -1.042082,-0.5002 -1.834065,-0.917032 -4.960311,-0.917032 -1.813223,0 -6.044077,0.708616 -4.230854,0.687774 -5.7731361,2.125848 -1.0629239,0.937874 -2.230056,0.937874 -0.646091,0 -1.4380735,-0.37515 -0.8128242,-0.375149 -0.8545074,-1.02124 0.9795573,-1.083766 2.7094138,-2.834464 9.3995822,-9.545474 14.2973682,-15.83965 -0.08337,-0.187575 -0.666932,-0.187575 -1.104607,0 -4.710212,0.521041 -1.625648,0.2501 -3.376347,0.2501 -4.2725368,0 -4.2725368,-2.250898 0,-1.709015 1.8965897,-1.709015 0.1042081,0 0.3959911,0.104208 1.500599,0.62525 3.626446,0.62525 2.813622,0 6.356702,-0.458516 0.354308,-0.06252 0.833666,-0.12505 0.458516,-0.04168 1.062924,-0.166733 1.208815,-0.208417 1.917431,-0.208417 0.708616,0 1.438074,0.37515 0.750299,0.375149 0.646091,1.208815 l -0.02084,0.08337 q -0.458516,1.813223 -11.02523,13.088553 -2.542681,2.730255 -2.730256,3.230455 0.08337,0.208416 0.416833,0.208416 0.291783,0 2.91783,-0.562724 4.918629,-1.062924 7.461309,-1.062924 3.980755,0 3.980755,2.417631 0,1.52144 -0.812825,2.334264 z"
         style="font-style:normal;font-variant:normal;font-weight:normal;font-stretch:normal;font-family:'Segoe Print';-inkscape-font-specification:'Segoe Print';fill:#ffffff;stroke-width:1.06709206px"
         id="path932"
         inkscape:connector-curvature="0" />
    </g>
  </g>
</svg>
